<?xml version="1.0" standalone="no"?>
<!DOCTYPE svg PUBLIC "-//W3C//DTD SVG 20010904//EN"
 "http://www.w3.org/TR/2001/REC-SVG-20010904/DTD/svg10.dtd">
<svg version="1.0" xmlns="http://www.w3.org/2000/svg"
 width="111.000000pt" height="111.000000pt" viewBox="0 0 111.000000 111.000000"
 preserveAspectRatio="xMidYMid meet">
<metadata>
Created by potrace 1.14, written by Peter Selinger 2001-2017
</metadata>
<g transform="translate(0.000000,111.000000) scale(0.100000,-0.100000)"
fill="#000000" stroke="none">
<path d="M200 937 c-82 -41 -108 -68 -76 -80 9 -4 30 0 48 7 l32 14 22 -47 21
-46 -29 -29 c-16 -16 -41 -49 -55 -73 -14 -25 -32 -43 -42 -43 -36 0 -80 -22
-97 -48 -23 -35 -27 -134 -9 -179 14 -34 62 -63 104 -63 12 0 28 -16 44 -43
38 -64 84 -106 157 -141 65 -31 65 -31 235 -31 165 0 172 1 230 28 68 32 137
94 166 150 13 25 26 37 40 37 39 0 91 32 105 65 15 38 13 140 -5 172 -14 28
-65 55 -94 51 -16 -2 -27 7 -43 36 -12 22 -38 56 -57 75 -34 36 -34 36 -18 71
28 61 28 61 67 43 31 -15 36 -15 44 -3 6 8 8 20 7 25 -4 15 -178 97 -194 91
-24 -10 -14 -43 17 -56 34 -14 36 -26 14 -74 l-17 -34 -46 22 c-41 19 -64 21
-216 21 -152 0 -175 -2 -216 -21 l-46 -22 -22 44 -21 44 35 17 c26 13 35 23
33 37 -5 32 -26 28 -118 -17z m551 -153 c127 -51 201 -171 194 -310 -6 -112
-63 -199 -166 -254 -61 -32 -64 -33 -205 -35 -183 -2 -240 13 -314 85 -60 59
-89 122 -94 205 -8 120 53 234 153 288 66 37 110 43 261 41 95 -1 136 -6 171
-20z m-637 -292 c1 -86 0 -89 -19 -82 -29 10 -43 44 -39 98 2 34 8 51 25 64
12 10 24 16 26 14 3 -3 6 -45 7 -94z m927 72 c19 -23 16 -119 -4 -142 -34 -38
-42 -24 -42 73 0 82 2 91 17 87 10 -2 23 -11 29 -18z"/>
<path d="M293 655 c-3 -9 2 -24 11 -34 15 -16 15 -19 1 -31 -8 -7 -15 -19 -15
-27 0 -22 29 -27 49 -9 16 15 19 15 31 1 28 -34 62 -5 40 35 -9 16 -9 25 -1
33 16 16 13 47 -4 47 -8 0 -25 -6 -36 -12 -17 -10 -23 -10 -26 0 -7 17 -42 15
-50 -3z"/>
<path d="M690 651 c0 -10 7 -24 16 -32 14 -11 14 -13 0 -21 -20 -11 -21 -47
-1 -55 9 -3 24 2 34 11 16 15 19 15 31 1 7 -8 19 -15 27 -15 21 0 27 29 9 48
-14 17 -14 19 1 34 8 9 13 24 10 32 -8 19 -43 21 -50 4 -3 -10 -9 -10 -26 0
-30 17 -51 15 -51 -7z"/>
<path d="M450 370 c-7 -4 -10 -16 -8 -26 3 -17 14 -19 103 -20 55 -1 106 1
113 3 13 5 17 42 5 44 -29 6 -204 5 -213 -1z"/>
</g>
</svg>
